<svg width="34" height="34" viewBox="0 0 34 34" fill="none" xmlns="http://www.w3.org/2000/svg">
<path d="M17.0002 22.6667C20.1298 22.6667 22.6668 20.1296 22.6668 17C22.6668 13.8704 20.1298 11.3333 17.0002 11.3333C13.8705 11.3333 11.3335 13.8704 11.3335 17C11.3335 20.1296 13.8705 22.6667 17.0002 22.6667Z" stroke="#333333" stroke-width="2.75" stroke-linecap="round" stroke-linejoin="round"/>
<path d="M22.6667 17V19.125C22.6667 20.0643 23.0398 20.9651 23.704 21.6293C24.3682 22.2935 25.269 22.6667 26.2083 22.6667C27.1476 22.6667 28.0485 22.2935 28.7127 21.6293C29.3769 20.9651 29.75 20.0643 29.75 19.125V17C29.7535 14.2603 28.8745 11.5924 27.2431 9.39135C25.6117 7.19035 23.3147 5.57338 20.6924 4.77997C18.0701 3.98656 15.262 4.05892 12.684 4.98633C10.1061 5.91373 7.89543 7.64686 6.37954 9.92896C4.86365 12.2111 4.12317 14.9207 4.26778 17.6566C4.41239 20.3925 5.43441 23.009 7.18243 25.1186C8.93046 27.2282 11.3115 28.7186 13.9729 29.369C16.6342 30.0195 19.4343 29.7954 21.9583 28.73" stroke="#333333" stroke-width="2.75" stroke-linecap="round" stroke-linejoin="round"/>
</svg>
