<svg width="31" height="39" viewBox="0 0 31 39" fill="none" xmlns="http://www.w3.org/2000/svg">
    <path d="M20.18 35.685C29.15 26.715 29.15 12.285 20.18 3.315C19.4 2.535 19.4 1.365 20.18 0.585C20.96 -0.195 22.13 -0.195 22.91 0.585C33.44 11.115 33.44 28.08 22.91 38.415C22.13 39.195 20.96 39.195 20.18 38.415C19.4 37.635 19.4 36.465 20.18 35.685Z" fill="#F05454"/>
    <path d="M14.72 30.03C20.375 24.18 20.375 14.82 14.72 9.16498C13.94 8.38498 13.94 7.21498 14.72 6.43498C15.5 5.65498 16.67 5.65498 17.45 6.43498C24.86 13.65 24.86 25.545 17.45 32.76C16.67 33.54 15.5 33.54 14.72 32.76C13.94 31.98 13.94 30.81 14.72 30.03Z" fill="#F05454"/>
    <path d="M8.86999 24.5697C11.6 21.8397 11.6 17.5497 8.86999 15.0147C8.08999 14.2347 8.08999 13.0647 8.86999 12.2847C9.65 11.5047 11.015 11.5047 11.795 12.2847C16.28 16.3797 16.28 23.2047 11.795 27.2997C11.015 28.0797 9.65 28.0797 8.86999 27.2997C8.08999 26.5197 8.08999 25.3497 8.86999 24.5697Z" fill="#F05454"/>
    <path d="M0.0949572 19.6952C0.0949571 21.7414 1.75374 23.4002 3.79995 23.4002C5.84616 23.4002 7.50494 21.7414 7.50494 19.6952C7.50494 17.649 5.84616 15.9902 3.79995 15.9902C1.75374 15.9902 0.0949573 17.649 0.0949572 19.6952Z" fill="#F05454"/>
</svg>
