<svg width="42" height="42" viewBox="0 0 42 42" fill="none" xmlns="http://www.w3.org/2000/svg">
    <path d="M21 1.47501C17.0864 1.47501 13.2607 2.63553 10.0066 4.80981C6.75261 6.98409 4.2164 10.0745 2.71873 13.6902C1.22106 17.3059 0.8292 21.2845 1.5927 25.1229C2.35621 28.9613 4.24079 32.4871 7.00812 35.2544C9.77545 38.0217 13.3012 39.9063 17.1396 40.6698C20.978 41.4333 24.9567 41.0414 28.5723 39.5438C32.188 38.0461 35.2784 35.5099 37.4527 32.2559C39.627 29.0018 40.7875 25.1761 40.7875 21.2625C40.7875 16.0145 38.7028 10.9815 34.9919 7.27064C31.281 3.55976 26.248 1.47501 21 1.47501ZM21 38.225C17.6451 38.225 14.3656 37.2302 11.5761 35.3663C8.78666 33.5024 6.61254 30.8533 5.32869 27.7538C4.04484 24.6543 3.70892 21.2437 4.36342 17.9533C5.01793 14.6629 6.63345 11.6405 9.0057 9.26821C11.3779 6.89596 14.4004 5.28044 17.6908 4.62594C20.9812 3.97144 24.3918 4.30735 27.4913 5.59121C30.5908 6.87506 33.2399 9.04918 35.1038 11.8387C36.9677 14.6281 37.9625 17.9076 37.9625 21.2625C37.9625 25.7612 36.1754 30.0757 32.9943 33.2568C29.8132 36.4379 25.4987 38.225 21 38.225Z" fill="#F05454" stroke="#F05454" stroke-width="0.2"/>
    <path d="M31.9544 13.859V13.8184L31.9249 13.7891C31.6602 13.526 31.3022 13.3783 30.929 13.3783C30.5559 13.3783 30.1979 13.526 29.9332 13.7891L29.933 13.7893L17.7411 25.9812C17.694 26.025 17.6321 26.0494 17.5678 26.0494C17.5035 26.0494 17.4416 26.025 17.3945 25.9812L12.0669 20.6537L12.0667 20.6535C11.8021 20.3904 11.4441 20.2427 11.0709 20.2427C10.6978 20.2427 10.3398 20.3904 10.0751 20.6535L10.0747 20.6539C9.81161 20.9185 9.66395 21.2765 9.66395 21.6497C9.66395 22.0228 9.81161 22.3808 10.0747 22.6455L10.0749 22.6457L17.2543 29.8251L17.2542 29.8251L17.2565 29.8272C17.3407 29.9065 17.4521 29.9506 17.5678 29.9506C17.6835 29.9506 17.7949 29.9065 17.8791 29.8272L17.8792 29.8272L17.8812 29.8252L31.925 15.8208L31.9253 15.8205C32.1884 15.5558 32.336 15.1978 32.336 14.8247C32.336 14.4655 32.1992 14.1204 31.9544 13.859Z" fill="#F05454" stroke="#F05454" stroke-width="0.2"/>
</svg>
