<svg width="78" height="78" viewBox="0 0 78 78" fill="none" xmlns="http://www.w3.org/2000/svg">
<path d="M19.5 9.75H13C11.2051 9.75 9.75 11.2051 9.75 13V19.5C9.75 21.2949 11.2051 22.75 13 22.75H19.5C21.2949 22.75 22.75 21.2949 22.75 19.5V13C22.75 11.2051 21.2949 9.75 19.5 9.75Z" stroke="#F05454" stroke-width="4" stroke-linecap="round" stroke-linejoin="round"/>
<path d="M65 55.25H58.5C56.7051 55.25 55.25 56.7051 55.25 58.5V65C55.25 66.7949 56.7051 68.25 58.5 68.25H65C66.7949 68.25 68.25 66.7949 68.25 65V58.5C68.25 56.7051 66.7949 55.25 65 55.25Z" stroke="#F05454" stroke-width="4" stroke-linecap="round" stroke-linejoin="round"/>
<path d="M22.75 16.25H45.5" stroke="#F05454" stroke-width="4" stroke-linecap="round" stroke-linejoin="round"/>
<path d="M32.5 61.75H55.25" stroke="#F05454" stroke-width="4" stroke-linecap="round" stroke-linejoin="round"/>
<path d="M29.25 65C31.0449 65 32.5 63.5449 32.5 61.75C32.5 59.9551 31.0449 58.5 29.25 58.5C27.4551 58.5 26 59.9551 26 61.75C26 63.5449 27.4551 65 29.25 65Z" stroke="#F05454" stroke-width="4" stroke-linecap="round" stroke-linejoin="round"/>
<path d="M48.75 19.5C50.5449 19.5 52 18.0449 52 16.25C52 14.4551 50.5449 13 48.75 13C46.9551 13 45.5 14.4551 45.5 16.25C45.5 18.0449 46.9551 19.5 48.75 19.5Z" stroke="#F05454" stroke-width="4" stroke-linecap="round" stroke-linejoin="round"/>
<path d="M22.75 17.875C24.884 17.875 26.9971 18.4214 28.9686 19.483C30.9401 20.5447 32.7315 22.1007 34.2405 24.0624C35.7494 26.024 36.9464 28.3528 37.763 30.9158C38.5797 33.4788 39 36.2258 39 39C39 44.6027 40.712 49.9759 43.7595 53.9376C46.807 57.8993 50.9402 60.125 55.25 60.125" stroke="#F05454" stroke-width="4" stroke-linecap="round" stroke-linejoin="round"/>
</svg>
