<svg width="86" height="86" viewBox="0 0 86 86" fill="none" xmlns="http://www.w3.org/2000/svg">
<path d="M32.25 14.3333V78.8333M21.5 14.3333H60.9167C62.8174 14.3333 64.6403 15.0884 65.9843 16.4324C67.3283 17.7764 68.0834 19.5993 68.0834 21.5V64.5C68.0834 66.4007 67.3283 68.2236 65.9843 69.5676C64.6403 70.9116 62.8174 71.6666 60.9167 71.6666H21.5C20.5497 71.6666 19.6382 71.2891 18.9662 70.6171C18.2942 69.9451 17.9167 69.0337 17.9167 68.0833V17.9166C17.9167 16.9663 18.2942 16.0549 18.9662 15.3828C19.6382 14.7108 20.5497 14.3333 21.5 14.3333V14.3333Z" stroke="#F05454" stroke-width="5" stroke-linecap="round" stroke-linejoin="round"/>
<path d="M46.5833 28.6667H53.75" stroke="#F05454" stroke-width="2.75" stroke-linecap="round" stroke-linejoin="round"/>
<path d="M46.5833 43H53.75" stroke="#F05454" stroke-width="2.75" stroke-linecap="round" stroke-linejoin="round"/>
</svg>
