<svg width="70" height="78" viewBox="0 0 70 78" fill="none" xmlns="http://www.w3.org/2000/svg">
<path d="M35 22.5333C39.3492 22.5333 42.875 19.2352 42.875 15.1667C42.875 11.0982 39.3492 7.79999 35 7.79999C30.6508 7.79999 27.125 11.0982 27.125 15.1667C27.125 19.2352 30.6508 22.5333 35 22.5333Z" stroke="#F05454" stroke-width="5" stroke-linecap="round" stroke-linejoin="round"/>
<path d="M65.6201 43.3334V61.2531C65.6452 61.6722 65.5732 62.0915 65.4096 62.4792C65.1541 63.0859 64.6795 63.5779 64.0775 63.8599L43.1701 73.5932C40.6148 74.783 37.8238 75.4 34.9977 75.4C32.1716 75.4 29.3806 74.783 26.8253 73.5932L5.91786 63.8599C5.42446 63.6295 5.0136 63.2569 4.73955 62.7915C4.4655 62.326 4.34114 61.7896 4.38291 61.2531L4.37525 43.3334" stroke="#F05454" stroke-width="5" stroke-linecap="round" stroke-linejoin="round"/>
<path d="M6.03218 42.4913L27.5983 33.5411C32.3415 31.5752 37.6688 31.5752 42.412 33.5411L63.9781 42.4913C64.4558 42.687 64.8662 43.0184 65.1586 43.4448C65.4511 43.8711 65.613 44.3739 65.6244 44.8912C65.6357 45.4086 65.4961 45.918 65.2227 46.3568C64.9493 46.7957 64.554 47.145 64.0853 47.3616L43.1776 57.1216C40.6175 58.315 37.8284 58.9333 35.0051 58.9333C32.1819 58.9333 29.3927 58.315 26.8327 57.1216L5.925 47.3616C5.45375 47.1467 5.05577 46.7979 4.78036 46.3584C4.50495 45.9189 4.36423 45.408 4.37564 44.8891C4.38705 44.3702 4.55009 43.866 4.84455 43.4391C5.13901 43.0122 5.55195 42.6813 6.03218 42.4874V42.4913Z" stroke="#F05454" stroke-width="5" stroke-linecap="round" stroke-linejoin="round"/>
<path d="M35 22.5333V45.0667" stroke="#F05454" stroke-width="5" stroke-linecap="round" stroke-linejoin="round"/>
</svg>
