<svg width="100" height="100" viewBox="0 0 100 100" fill="none" xmlns="http://www.w3.org/2000/svg">
<circle opacity="0.65" cx="50" cy="50" r="50" fill="#F8D9D9"/>
<g clip-path="url(#clip0_44_160)">
<path d="M55.18 68.685C64.15 59.715 64.15 45.285 55.18 36.315C54.4 35.535 54.4 34.365 55.18 33.585C55.96 32.805 57.13 32.805 57.91 33.585C68.44 44.115 68.44 61.08 57.91 71.415C57.13 72.195 55.96 72.195 55.18 71.415C54.4 70.635 54.4 69.465 55.18 68.685Z" fill="#F05454"/>
<path d="M49.72 63.03C55.375 57.18 55.375 47.82 49.72 42.165C48.94 41.385 48.94 40.215 49.72 39.435C50.5 38.655 51.67 38.655 52.45 39.435C59.86 46.65 59.86 58.545 52.45 65.76C51.67 66.54 50.5 66.54 49.72 65.76C48.94 64.98 48.94 63.81 49.72 63.03Z" fill="#F05454"/>
<path d="M43.87 57.5697C46.6 54.8397 46.6 50.5497 43.87 48.0147C43.09 47.2347 43.09 46.0647 43.87 45.2847C44.65 44.5047 46.015 44.5047 46.795 45.2847C51.28 49.3797 51.28 56.2047 46.795 60.2997C46.015 61.0797 44.65 61.0797 43.87 60.2997C43.09 59.5197 43.09 58.3497 43.87 57.5697Z" fill="#F05454"/>
<path d="M35.095 52.6952C35.095 54.7414 36.7537 56.4002 38.8 56.4002C40.8462 56.4002 42.5049 54.7414 42.5049 52.6952C42.5049 50.649 40.8462 48.9902 38.8 48.9902C36.7537 48.9902 35.095 50.649 35.095 52.6952Z" fill="#F05454"/>
</g>
<defs>
<clipPath id="clip0_44_160">
<rect width="39" height="39" fill="white" transform="translate(70 33) rotate(90)"/>
</clipPath>
</defs>
</svg>
