<svg width="80" height="80" viewBox="0 0 80 80" fill="none" xmlns="http://www.w3.org/2000/svg">
<path d="M40 70C56.5685 70 70 56.5685 70 40C70 23.4315 56.5685 10 40 10C23.4315 10 10 23.4315 10 40C10 56.5685 23.4315 70 40 70Z" stroke="#F05454" stroke-width="4" stroke-linecap="round" stroke-linejoin="round"/>
<path d="M12 30H68" stroke="#F05454" stroke-width="4" stroke-linecap="round" stroke-linejoin="round"/>
<path d="M12 50H68" stroke="#F05454" stroke-width="4" stroke-linecap="round" stroke-linejoin="round"/>
<path d="M38.3334 10C32.7178 18.9987 29.7407 29.3929 29.7407 40C29.7407 50.6071 32.7178 61.0013 38.3334 70" stroke="#F05454" stroke-width="4" stroke-linecap="round" stroke-linejoin="round"/>
<path d="M41.6666 10C47.2822 18.9987 50.2593 29.3929 50.2593 40C50.2593 50.6071 47.2822 61.0013 41.6666 70" stroke="#F05454" stroke-width="4" stroke-linecap="round" stroke-linejoin="round"/>
</svg>
