<svg width="100" height="100" viewBox="0 0 100 100" fill="none" xmlns="http://www.w3.org/2000/svg">
<circle opacity="0.2" cx="50" cy="50" r="50" fill="#F05454"/>
<path d="M50 30.475C46.0864 30.475 42.2607 31.6355 39.0066 33.8098C35.7526 35.9841 33.2164 39.0745 31.7187 42.6902C30.2211 46.3059 29.8292 50.2845 30.5927 54.1229C31.3562 57.9613 33.2408 61.4871 36.0081 64.2544C38.7755 67.0217 42.3012 68.9063 46.1396 69.6698C49.978 70.4333 53.9567 70.0414 57.5723 68.5438C61.188 67.0461 64.2784 64.5099 66.4527 61.2559C68.627 58.0018 69.7875 54.1761 69.7875 50.2625C69.7875 45.0145 67.7028 39.9815 63.9919 36.2706C60.281 32.5598 55.248 30.475 50 30.475ZM50 67.225C46.6451 67.225 43.3656 66.2302 40.5761 64.3663C37.7867 62.5024 35.6125 59.8533 34.3287 56.7538C33.0448 53.6543 32.7089 50.2437 33.3634 46.9533C34.0179 43.6629 35.6334 40.6405 38.0057 38.2682C40.3779 35.896 43.4004 34.2804 46.6908 33.6259C49.9812 32.9714 53.3918 33.3074 56.4913 34.5912C59.5908 35.8751 62.2399 38.0492 64.1038 40.8387C65.9677 43.6281 66.9625 46.9076 66.9625 50.2625C66.9625 54.7612 65.1754 59.0757 61.9943 62.2568C58.8132 65.4379 54.4987 67.225 50 67.225Z" fill="#F05454" stroke="#F05454" stroke-width="0.2"/>
<path d="M60.9544 42.859V42.8184L60.9249 42.7891C60.6602 42.526 60.3022 42.3783 59.929 42.3783C59.5559 42.3783 59.1979 42.526 58.9332 42.7891L58.933 42.7893L46.7411 54.9812C46.694 55.025 46.6321 55.0494 46.5678 55.0494C46.5035 55.0494 46.4416 55.025 46.3945 54.9812L41.0669 49.6537L41.0667 49.6535C40.8021 49.3904 40.4441 49.2427 40.0709 49.2427C39.6978 49.2427 39.3398 49.3904 39.0751 49.6535L39.0747 49.6539C38.8116 49.9185 38.6639 50.2765 38.6639 50.6497C38.6639 51.0228 38.8116 51.3808 39.0747 51.6455L39.0749 51.6457L46.2543 58.8251L46.2542 58.8251L46.2565 58.8272C46.3407 58.9065 46.4521 58.9506 46.5678 58.9506C46.6835 58.9506 46.7949 58.9065 46.8791 58.8272L46.8792 58.8272L46.8812 58.8252L60.925 44.8208L60.9253 44.8205C61.1884 44.5558 61.336 44.1978 61.336 43.8247C61.336 43.4655 61.1992 43.1204 60.9544 42.859Z" fill="#F05454" stroke="#F05454" stroke-width="0.2"/>
</svg>
