<svg width="100" height="100" viewBox="0 0 100 100" fill="none" xmlns="http://www.w3.org/2000/svg">
<circle cx="50" cy="50" r="50" fill="#F8D9D9"/>
<g clip-path="url(#clip0_44_148)">
<path d="M62.25 43.742V41.25C62.25 38.0011 60.9594 34.8853 58.6621 32.5879C56.3647 30.2906 53.2489 29 50 29C46.7511 29 43.6353 30.2906 41.3379 32.5879C39.0406 34.8853 37.75 38.0011 37.75 41.25V43.742C36.1914 44.4222 34.8648 45.5419 33.9324 46.9641C33 48.3863 32.5022 50.0494 32.5 51.75V62.25C32.5028 64.5698 33.4255 66.7938 35.0659 68.4341C36.7062 70.0744 38.9302 70.9972 41.25 71H58.75C61.0698 70.9972 63.2938 70.0744 64.9341 68.4341C66.5745 66.7938 67.4972 64.5698 67.5 62.25V51.75C67.4978 50.0494 67 48.3863 66.0676 46.9641C65.1352 45.5419 63.8086 44.4222 62.25 43.742V43.742ZM41.25 41.25C41.25 38.9294 42.1719 36.7038 43.8128 35.0628C45.4538 33.4219 47.6794 32.5 50 32.5C52.3207 32.5 54.5462 33.4219 56.1872 35.0628C57.8281 36.7038 58.75 38.9294 58.75 41.25V43H41.25V41.25ZM64 62.25C64 63.6424 63.4469 64.9777 62.4623 65.9623C61.4778 66.9469 60.1424 67.5 58.75 67.5H41.25C39.8576 67.5 38.5223 66.9469 37.5377 65.9623C36.5531 64.9777 36 63.6424 36 62.25V51.75C36 50.3576 36.5531 49.0223 37.5377 48.0377C38.5223 47.0531 39.8576 46.5 41.25 46.5H58.75C60.1424 46.5 61.4778 47.0531 62.4623 48.0377C63.4469 49.0223 64 50.3576 64 51.75V62.25Z" fill="#F05454"/>
<path d="M50 53.4998C49.5359 53.4998 49.0908 53.6841 48.7626 54.0123C48.4344 54.3405 48.25 54.7856 48.25 55.2498V58.7498C48.25 59.2139 48.4344 59.659 48.7626 59.9872C49.0908 60.3154 49.5359 60.4998 50 60.4998C50.4642 60.4998 50.9093 60.3154 51.2375 59.9872C51.5657 59.659 51.75 59.2139 51.75 58.7498V55.2498C51.75 54.7856 51.5657 54.3405 51.2375 54.0123C50.9093 53.6841 50.4642 53.4998 50 53.4998Z" fill="#F05454"/>
</g>
<defs>
<clipPath id="clip0_44_148">
<rect width="42" height="42" fill="white" transform="translate(29 29)"/>
</clipPath>
</defs>
</svg>
