<svg width="38" height="50" viewBox="0 0 38 50" fill="none" xmlns="http://www.w3.org/2000/svg">
<path d="M25.3596 42.1759C21.5289 42.1759 17.8368 40.9158 14.7908 38.5381C11.2203 35.7513 8.96535 31.7621 8.44293 27.3059C7.92051 22.8497 9.19244 18.4606 12.0252 14.9467C14.8569 11.4327 18.9104 9.21353 23.4384 8.70044L23.9011 12.6435C20.4436 13.036 17.3485 14.7305 15.1864 17.4135C13.0242 20.0964 12.0529 23.4488 12.4517 26.8515C12.8504 30.2543 14.5723 33.3003 17.2984 35.4282C20.0246 37.5571 23.4309 38.5119 26.8885 38.1205L27.3512 42.0637C26.6859 42.1392 26.0217 42.177 25.3618 42.177L25.3596 42.1759Z" fill="#F05454"/>
<path d="M25.3728 49.825C12.6632 49.825 1.66044 40.4184 0.168887 27.6993C-1.43568 14.0128 8.57446 1.59172 22.4825 0.0125911L22.7138 0H37.495V21.8959L30.1492 30.3078C27.8047 32.8428 23.8013 33.0285 21.2255 30.7212C19.977 29.6037 19.2467 28.075 19.1667 26.4161C19.0868 24.7572 19.6689 23.1676 20.8043 21.9389L23.7874 24.6103C23.377 25.0542 23.1669 25.6291 23.1957 26.2293C23.2245 26.8284 23.4889 27.3814 23.9399 27.7864C24.8653 28.6143 26.2993 28.5545 27.1501 27.6542L33.4617 20.4248V3.96934H22.8332C11.1929 5.35226 2.83108 15.7693 4.17657 27.245C5.52632 38.7574 16.1399 47.0403 27.8399 45.7151L28.3026 49.6582C27.3185 49.7704 26.3409 49.825 25.3739 49.825H25.3728Z" fill="#F05454"/>
</svg>
