<svg width="186" height="57" viewBox="0 0 186 57" fill="none" xmlns="http://www.w3.org/2000/svg">
<path d="M59.7488 32.2154C59.7488 26.0906 64.723 21.3765 71.1536 21.3765C74.6726 21.3765 78.2216 22.9979 80.1627 25.4894L76.6437 28.912C75.1572 27.0501 73.3076 26.1192 71.1536 26.1192C67.726 26.1192 65.1174 28.731 65.1174 32.2142C65.1174 35.6974 67.7861 38.2486 71.3352 38.2486C73.3978 38.2486 75.1572 37.3783 76.5824 35.6367L80.01 38.97C78.0388 41.4318 74.5499 43.0234 71.1524 43.0234C64.6917 43.0234 59.7476 38.3093 59.7476 32.2142L59.7488 32.2154Z" fill="#F05454"/>
<path d="M82.2253 21.7074H88.8075L94.0547 31.6154L99.3019 21.7074H105.884V42.7246H100.97V28.4024L93.9934 41.2223L87.0167 28.3417V42.7234H82.2241V21.7074H82.2253Z" fill="#F05454"/>
<path d="M108.161 38.0712C108.161 35.0391 110.588 33.2975 114.773 33.2975C116.016 33.2975 117.23 33.4475 118.413 33.7475V32.9666C118.413 31.375 117.381 30.5952 115.35 30.5952C114.077 30.5952 112.59 30.9857 110.497 31.8559L108.738 28.2834C111.346 27.112 113.773 26.5418 116.23 26.5418C120.69 26.5418 123.267 28.7334 123.267 32.5463V42.7246H118.415V41.7639C117.111 42.6341 115.715 42.9948 113.986 42.9948C110.559 42.9948 108.163 40.983 108.163 38.0712H108.161ZM115.349 39.5723C116.532 39.5723 117.563 39.3318 118.412 38.8211V36.7795C117.472 36.5391 116.501 36.4188 115.5 36.4188C113.802 36.4188 112.832 36.9891 112.832 37.9807C112.832 38.9723 113.772 39.5723 115.349 39.5723Z" fill="#F05454"/>
<path d="M126.179 26.8418H131.093V28.4334C132.155 27.1727 133.58 26.4822 135.31 26.4822C136.25 26.512 136.735 26.6025 137.159 26.8727V31.1059C136.522 30.8059 135.673 30.625 134.824 30.625C133.277 30.625 131.912 31.3761 131.093 32.6368V42.7246H126.179V26.8418Z" fill="#F05454"/>
<path d="M139.282 21.7074L144.196 20.9563V33.3261L150.596 26.8406H156.087L148.958 34.0165L156.572 42.7234H150.355L144.197 35.6082V42.7234H139.283V21.7074H139.282Z" fill="#F05454"/>
<path d="M155.298 34.7974C155.298 30.1738 158.968 26.5703 163.669 26.5703C168.371 26.5703 171.768 30.2333 171.768 35.2474V36.4486H160.333C160.971 37.9497 162.426 38.9711 164.277 38.9711C165.612 38.9711 166.734 38.5509 167.491 37.77L170.737 40.6223C168.705 42.3032 166.704 43.0246 164.034 43.0246C159.12 43.0246 155.298 39.4211 155.298 34.7974ZM166.945 33.0558C166.429 31.5249 165.156 30.5333 163.578 30.5333C162 30.5333 160.726 31.4642 160.242 33.0558H166.945Z" fill="#F05454"/>
<path d="M175.893 37.8902V30.894H172.647V26.8406H175.893V22.7574L180.807 21.7062V26.8406H185.297V30.894H180.807V36.9296C180.807 38.3402 181.353 38.8509 182.931 38.8509C183.72 38.8509 184.326 38.7604 185.145 38.5212V42.4544C184.235 42.7246 182.658 42.9353 181.718 42.9353C177.866 42.9353 175.894 41.2235 175.894 37.8914L175.893 37.8902Z" fill="#F05454"/>
<path d="M28.6059 48.0863C24.2848 48.0863 20.1199 46.6566 16.6839 43.959C12.6562 40.7972 10.1126 36.2712 9.5233 31.2154C8.934 26.1596 10.3688 21.18 13.5642 17.1932C16.7585 13.2065 21.331 10.6887 26.4387 10.1066L26.9607 14.5802C23.0604 15.0254 19.5691 16.948 17.1301 19.9919C14.6911 23.0359 13.5955 26.8393 14.0453 30.6999C14.4951 34.5605 16.4374 38.0164 19.5126 40.4306C22.5878 42.846 26.4303 43.9293 30.3305 43.4852L30.8525 47.9589C30.102 48.0446 29.3528 48.0875 28.6083 48.0875L28.6059 48.0863Z" fill="#F05454"/>
<path d="M28.6214 56.7646C14.2845 56.7646 1.87303 46.0923 0.190511 31.6618C-1.61949 16.1337 9.67228 2.04134 25.361 0.249728L25.622 0.235443H42.2957V25.0775L34.0093 34.6212C31.3647 37.4973 26.8487 37.708 23.9431 35.0903C22.5347 33.8224 21.7109 32.088 21.6207 30.2059C21.5305 28.3238 22.1872 26.5203 23.468 25.1263L26.833 28.1572C26.37 28.6607 26.1331 29.3131 26.1656 29.994C26.198 30.6737 26.4963 31.3011 27.005 31.7606C28.0489 32.6999 29.6665 32.632 30.6262 31.6106L37.746 23.4085V4.73887H25.7567C12.626 6.30787 3.19355 18.1265 4.71131 31.1463C6.23388 44.2078 18.2064 53.6051 31.4044 52.1016L31.9263 56.5753C30.8163 56.7027 29.7134 56.7646 28.6226 56.7646H28.6214Z" fill="#F05454"/>
</svg>
