<svg width="204" height="62" viewBox="0 0 204 62" fill="none" xmlns="http://www.w3.org/2000/svg">
<g clip-path="url(#clip0_410_237)">
<path d="M66.2057 34.9032C66.2057 28.2186 71.6651 23.0735 78.723 23.0735C82.5852 23.0735 86.4805 24.8431 88.6109 27.5624L84.7487 31.2978C83.1172 29.2658 81.0871 28.2497 78.723 28.2497C74.9611 28.2497 72.0981 31.1003 72.0981 34.9019C72.0981 38.7036 75.0271 41.4879 78.9223 41.4879C81.1861 41.4879 83.1172 40.5381 84.6813 38.6373L88.4433 42.2752C86.2798 44.9621 82.4506 46.6992 78.7217 46.6992C71.6308 46.6992 66.2044 41.5542 66.2044 34.9019L66.2057 34.9032Z" fill="#FAFAFA"/>
<path d="M90.8747 23.4347H98.0989L103.858 34.2484L109.617 23.4347H116.841V46.3731H111.448V30.7417L103.791 44.7334L96.1334 30.6755V46.3718H90.8734V23.4347H90.8747Z" fill="#FAFAFA"/>
<path d="M119.34 41.2943C119.34 37.9851 122.003 36.0842 126.597 36.0842C127.962 36.0842 129.294 36.2479 130.593 36.5754V35.723C130.593 33.9859 129.46 33.1349 127.231 33.1349C125.833 33.1349 124.201 33.5611 121.904 34.5108L119.973 30.6118C122.836 29.3333 125.5 28.7109 128.197 28.7109C133.091 28.7109 135.92 31.1029 135.92 35.2644V46.3731H130.594V45.3246C129.163 46.2743 127.631 46.668 125.734 46.668C121.972 46.668 119.342 44.4723 119.342 41.2943H119.34ZM127.229 42.9326C128.528 42.9326 129.659 42.6702 130.591 42.1128V39.8846C129.559 39.6221 128.494 39.4909 127.396 39.4909C125.532 39.4909 124.467 40.1132 124.467 41.1955C124.467 42.2778 125.499 42.9326 127.229 42.9326Z" fill="#FAFAFA"/>
<path d="M139.116 29.0384H144.509V30.7755C145.675 29.3996 147.239 28.646 149.137 28.646C150.169 28.6785 150.701 28.7772 151.167 29.0722V33.6923C150.467 33.3649 149.535 33.1674 148.604 33.1674C146.906 33.1674 145.408 33.9872 144.509 35.3632V46.3731H139.116V29.0384Z" fill="#FAFAFA"/>
<path d="M153.497 23.4347L158.89 22.6149V36.1155L165.915 29.0371H171.941L164.117 36.869L172.474 46.3718H165.65L158.891 38.6062V46.3718H153.498V23.4347H153.497Z" fill="#FAFAFA"/>
<path d="M171.075 37.7214C171.075 32.675 175.103 28.7422 180.263 28.7422C185.423 28.7422 189.152 32.74 189.152 38.2125V39.5234H176.601C177.301 41.1618 178.898 42.2766 180.93 42.2766C182.395 42.2766 183.626 41.8179 184.458 40.9656L188.02 44.0786C185.79 45.9132 183.593 46.7005 180.663 46.7005C175.27 46.7005 171.075 42.7677 171.075 37.7214ZM183.859 35.8206C183.292 34.1497 181.894 33.0674 180.163 33.0674C178.431 33.0674 177.033 34.0834 176.501 35.8206H183.859Z" fill="#FAFAFA"/>
<path d="M193.679 41.0968V33.461H190.117V29.0371H193.679V24.5806L199.073 23.4333V29.0371H204V33.461H199.073V40.0483C199.073 41.5879 199.672 42.1453 201.404 42.1453C202.27 42.1453 202.935 42.0465 203.834 41.7854V46.0781C202.834 46.3731 201.104 46.603 200.072 46.603C195.844 46.603 193.68 44.7347 193.68 41.0981L193.679 41.0968Z" fill="#FAFAFA"/>
<path d="M32.0251 52.225C27.2825 52.225 22.7114 50.6646 18.9403 47.7205C14.5197 44.2696 11.7279 39.3299 11.0812 33.8119C10.4344 28.2939 12.0091 22.8591 15.5163 18.5079C19.0221 14.1567 24.0406 11.4088 29.6465 10.7734L30.2194 15.6561C25.9387 16.142 22.1069 18.2403 19.43 21.5625C16.7531 24.8847 15.5506 29.0358 16.0442 33.2493C16.5379 37.4628 18.6697 41.2346 22.0448 43.8695C25.42 46.5057 29.6373 47.688 33.918 47.2034L34.4908 52.086C33.6672 52.1795 32.8448 52.2263 32.0278 52.2263L32.0251 52.225Z" fill="#FAFAFA"/>
<path d="M32.0418 61.6966C16.3065 61.6966 2.68439 50.0488 0.837756 34.2991C-1.1488 17.3516 11.2444 1.97098 28.4634 0.0155911L28.7498 0H47.0499V27.1129L37.9553 37.5291C35.0527 40.6681 30.0962 40.8981 26.9072 38.041C25.3615 36.6573 24.4573 34.7643 24.3583 32.7101C24.2593 30.656 24.98 28.6876 26.3858 27.1662L30.079 30.4741C29.5709 31.0237 29.3108 31.7357 29.3465 32.4789C29.3821 33.2208 29.7094 33.9055 30.2678 34.407C31.4135 35.4321 33.1889 35.358 34.2422 34.2433L42.0564 25.2914V4.9151H28.8977C14.4862 6.62752 4.13372 19.5266 5.79952 33.7366C7.4706 47.992 20.6109 58.2484 35.0962 56.6074L35.6691 61.49C34.4508 61.6291 33.2404 61.6966 32.0432 61.6966H32.0418Z" fill="#FAFAFA"/>
</g>
<defs>
<clipPath id="clip0_410_237">
<rect width="203.37" height="61.6966" fill="white" transform="translate(0.629639)"/>
</clipPath>
</defs>
</svg>
