<svg width="204" height="62" viewBox="0 0 204 62" fill="none" xmlns="http://www.w3.org/2000/svg">
    <path d="M65.5771 34.9032C65.5771 28.2186 71.0365 23.0735 78.0943 23.0735C81.9566 23.0735 85.8518 24.8431 87.9822 27.5624L84.12 31.2978C82.4885 29.2658 80.4584 28.2497 78.0943 28.2497C74.3324 28.2497 71.4694 31.1003 71.4694 34.9019C71.4694 38.7036 74.3984 41.4879 78.2937 41.4879C80.5574 41.4879 82.4885 40.5381 84.0527 38.6373L87.8146 42.2752C85.6512 44.9621 81.8219 46.6992 78.093 46.6992C71.0021 46.6992 65.5757 41.5542 65.5757 34.9019L65.5771 34.9032Z" fill="#FAFAFA"/>
    <path d="M90.246 23.4346H97.4702L103.229 34.2483L108.988 23.4346H116.212V46.373H110.819V30.7416L103.162 44.7333L95.5048 30.6753V46.3717H90.2447V23.4346H90.246Z" fill="#FAFAFA"/>
    <path d="M118.711 41.2943C118.711 37.9851 121.375 36.0842 125.968 36.0842C127.333 36.0842 128.665 36.2479 129.964 36.5754V35.723C129.964 33.9859 128.831 33.1349 126.602 33.1349C125.204 33.1349 123.573 33.5611 121.276 34.5108L119.345 30.6118C122.208 29.3333 124.871 28.7109 127.568 28.7109C132.463 28.7109 135.291 31.1029 135.291 35.2644V46.3731H129.965V45.3246C128.534 46.2743 127.002 46.668 125.105 46.668C121.343 46.668 118.714 44.4723 118.714 41.2943H118.711ZM126.601 42.9326C127.899 42.9326 129.031 42.6702 129.963 42.1128V39.8846C128.93 39.6221 127.865 39.4909 126.767 39.4909C124.903 39.4909 123.838 40.1132 123.838 41.1955C123.838 42.2778 124.87 42.9326 126.601 42.9326V42.9326Z" fill="#FAFAFA"/>
    <path d="M138.487 29.0384H143.88V30.7755C145.046 29.3996 146.61 28.646 148.508 28.646C149.54 28.6785 150.072 28.7772 150.538 29.0722V33.6923C149.839 33.3649 148.907 33.1674 147.975 33.1674C146.277 33.1674 144.779 33.9872 143.88 35.3632V46.3731H138.487V29.0384Z" fill="#FAFAFA"/>
    <path d="M152.868 23.4346L158.261 22.6147V36.1153L165.286 29.037H171.312L163.488 36.8689L171.845 46.3717H165.021L158.263 38.606V46.3717H152.869V23.4346H152.868Z" fill="#FAFAFA"/>
    <path d="M170.446 37.7211C170.446 32.6748 174.475 28.7419 179.634 28.7419C184.794 28.7419 188.523 32.7398 188.523 38.2122V39.5232H175.973C176.672 41.1616 178.269 42.2763 180.301 42.2763C181.766 42.2763 182.998 41.8177 183.829 40.9654L187.392 44.0784C185.161 45.913 182.965 46.7003 180.034 46.7003C174.641 46.7003 170.446 42.7674 170.446 37.7211V37.7211ZM183.23 35.8203C182.664 34.1495 181.266 33.0672 179.534 33.0672C177.802 33.0672 176.404 34.0832 175.872 35.8203H183.23Z" fill="#FAFAFA"/>
    <path d="M193.051 41.0968V33.461H189.488V29.0371H193.051V24.5806L198.444 23.4333V29.0371H203.371V33.461H198.444V40.0483C198.444 41.5879 199.043 42.1453 200.775 42.1453C201.641 42.1453 202.306 42.0465 203.205 41.7854V46.0781C202.206 46.3731 200.475 46.603 199.443 46.603C195.215 46.603 193.052 44.7347 193.052 41.0981L193.051 41.0968Z" fill="#FAFAFA"/>
    <path d="M31.3965 52.225C26.6538 52.225 22.0828 50.6646 18.3116 47.7205C13.891 44.2696 11.0993 39.3299 10.4525 33.8119C9.80572 28.2939 11.3804 22.8591 14.8876 18.5079C18.3934 14.1567 23.412 11.4088 29.0179 10.7734L29.5907 15.6561C25.3101 16.142 21.4782 18.2403 18.8013 21.5625C16.1244 24.8847 14.9219 29.0358 15.4156 33.2493C15.9093 37.4628 18.041 41.2346 21.4162 43.8695C24.7913 46.5057 29.0086 47.688 33.2893 47.2034L33.8622 52.086C33.0385 52.1795 32.2162 52.2263 31.3991 52.2263L31.3965 52.225Z" fill="#FAFAFA"/>
    <path d="M31.4132 61.6966C15.6778 61.6966 2.05573 50.0488 0.209093 34.2991C-1.77746 17.3516 10.6157 1.97098 27.8347 0.0155911L28.1212 0H46.4212V27.1129L37.3266 37.5291C34.424 40.6681 29.4675 40.8981 26.2785 38.041C24.7328 36.6573 23.8286 34.7643 23.7296 32.7101C23.6306 30.656 24.3513 28.6876 25.7571 27.1662L29.4504 30.4741C28.9422 31.0237 28.6822 31.7357 28.7178 32.4789C28.7534 33.2208 29.0808 33.9055 29.6391 34.407C30.7849 35.4321 32.5602 35.358 33.6136 34.2433L41.4278 25.2914V4.9151H28.269C13.8576 6.62752 3.50506 19.5266 5.17086 33.7366C6.84194 47.992 19.9822 58.2484 34.4676 56.6074L35.0405 61.49C33.8221 61.6291 32.6117 61.6966 31.4145 61.6966H31.4132Z" fill="#FAFAFA"/>
</svg>
