<svg width="34" height="35" viewBox="0 0 34 35" fill="none" xmlns="http://www.w3.org/2000/svg">
<path d="M4.25 29.3332L6.09167 23.8082C4.49996 21.4541 3.92416 18.6663 4.47131 15.9632C5.01846 13.26 6.65134 10.8254 9.06634 9.11213C11.4813 7.39882 14.5141 6.52335 17.6008 6.6485C20.6875 6.77365 23.618 7.89091 25.8475 9.79254C28.077 11.6942 29.4537 14.2508 29.7218 16.987C29.9898 19.7232 29.1308 22.4528 27.3046 24.6683C25.4785 26.8839 22.8093 28.4345 19.7934 29.032C16.7775 29.6295 13.6201 29.2331 10.9083 27.9166L4.25 29.3332" stroke="#FAFAFA" stroke-width="2.75" stroke-linecap="round" stroke-linejoin="round"/>
<path d="M17 18V18.0142" stroke="#FAFAFA" stroke-width="2.75" stroke-linecap="round" stroke-linejoin="round"/>
<path d="M11.3335 18V18.0142" stroke="#FAFAFA" stroke-width="2.75" stroke-linecap="round" stroke-linejoin="round"/>
<path d="M22.6665 18V18.0142" stroke="#FAFAFA" stroke-width="2.75" stroke-linecap="round" stroke-linejoin="round"/>
<circle cx="25" cy="9.5" r="8" fill="#F05454"/>
</svg>
