<svg width="34" height="34" viewBox="0 0 34 34" fill="none" xmlns="http://www.w3.org/2000/svg">
<path d="M4.25 28.3333L6.09167 22.8083C4.49996 20.4542 3.92416 17.6664 4.47131 14.9633C5.01846 12.2601 6.65134 9.82554 9.06634 8.11222C11.4813 6.39891 14.5141 5.52344 17.6008 5.64859C20.6875 5.77374 23.618 6.891 25.8475 8.79263C28.077 10.6943 29.4537 13.2509 29.7218 15.9871C29.9898 18.7233 29.1308 21.4529 27.3046 23.6684C25.4785 25.884 22.8093 27.4346 19.7934 28.0321C16.7775 28.6296 13.6201 28.2332 10.9083 26.9167L4.25 28.3333" stroke="#333333" stroke-width="2.75" stroke-linecap="round" stroke-linejoin="round"/>
<path d="M17 17V17.0142" stroke="#333333" stroke-width="2.75" stroke-linecap="round" stroke-linejoin="round"/>
<path d="M11.3333 17V17.0142" stroke="#333333" stroke-width="2.75" stroke-linecap="round" stroke-linejoin="round"/>
<path d="M22.6667 17V17.0142" stroke="#333333" stroke-width="2.75" stroke-linecap="round" stroke-linejoin="round"/>
</svg>
