<svg width="34" height="35" viewBox="0 0 34 35" fill="none" xmlns="http://www.w3.org/2000/svg">
    <path d="M4.25 29.3333L6.09167 23.8083C4.49996 21.4542 3.92416 18.6664 4.47131 15.9633C5.01846 13.2601 6.65134 10.8255 9.06634 9.11222C11.4813 7.39891 14.5141 6.52344 17.6008 6.64859C20.6875 6.77374 23.618 7.891 25.8475 9.79263C28.077 11.6943 29.4537 14.2509 29.7218 16.9871C29.9898 19.7233 29.1308 22.4529 27.3046 24.6684C25.4785 26.884 22.8093 28.4346 19.7934 29.0321C16.7775 29.6296 13.6201 29.2332 10.9083 27.9167L4.25 29.3333" stroke="#FAFAFA" stroke-width="2.75" stroke-linecap="round" stroke-linejoin="round"/>
    <path d="M17 18V18.0142" stroke="#FAFAFA" stroke-width="2.75" stroke-linecap="round" stroke-linejoin="round"/>
    <path d="M11.3334 18V18.0142" stroke="#FAFAFA" stroke-width="2.75" stroke-linecap="round" stroke-linejoin="round"/>
    <path d="M22.6666 18V18.0142" stroke="#FAFAFA" stroke-width="2.75" stroke-linecap="round" stroke-linejoin="round"/>
</svg>
