<svg width="90" height="90" viewBox="0 0 90 90" fill="none" xmlns="http://www.w3.org/2000/svg">
<path d="M71.25 32.6625L51.2512 17.1075C49.4962 15.7421 47.3361 15.0009 45.1125 15.0009C42.8889 15.0009 40.7288 15.7421 38.9737 17.1075L18.9712 32.6625C17.7692 33.5973 16.7966 34.7945 16.1278 36.1625C15.4591 37.5306 15.1118 39.0334 15.1125 40.5562V67.5562C15.1125 69.5454 15.9027 71.453 17.3092 72.8595C18.7157 74.2661 20.6234 75.0562 22.6125 75.0562H67.6125C69.6016 75.0562 71.5093 74.2661 72.9158 72.8595C74.3223 71.453 75.1125 69.5454 75.1125 67.5562V40.5562C75.1125 37.47 73.6875 34.5562 71.25 32.6625Z" stroke="#F05454" stroke-width="5" stroke-linecap="round" stroke-linejoin="round"/>
<path d="M60 56.25C51.7125 61.2488 38.28 61.2488 30 56.25" stroke="#F05454" stroke-width="5" stroke-linecap="round" stroke-linejoin="round"/>
</svg>
