<svg width="42" height="42" viewBox="0 0 42 42" fill="none" xmlns="http://www.w3.org/2000/svg">
    <g clip-path="url(#clip0_44_144)">
        <path d="M33.25 14.742V12.25C33.25 9.0011 31.9594 5.88526 29.6621 3.58794C27.3647 1.29062 24.2489 0 21 0C17.7511 0 14.6353 1.29062 12.3379 3.58794C10.0406 5.88526 8.75 9.0011 8.75 12.25V14.742C7.19138 15.4222 5.86476 16.5419 4.93237 17.9641C3.99998 19.3863 3.50224 21.0494 3.5 22.75V33.25C3.50278 35.5698 4.42554 37.7938 6.06589 39.4341C7.70623 41.0745 9.93021 41.9972 12.25 42H29.75C32.0698 41.9972 34.2938 41.0745 35.9341 39.4341C37.5745 37.7938 38.4972 35.5698 38.5 33.25V22.75C38.4978 21.0494 38 19.3863 37.0676 17.9641C36.1353 16.5419 34.8086 15.4222 33.25 14.742ZM12.25 12.25C12.25 9.92935 13.1719 7.70376 14.8128 6.06281C16.4538 4.42187 18.6794 3.5 21 3.5C23.3207 3.5 25.5462 4.42187 27.1872 6.06281C28.8281 7.70376 29.75 9.92935 29.75 12.25V14H12.25V12.25ZM35 33.25C35 34.6424 34.4469 35.9777 33.4623 36.9623C32.4778 37.9469 31.1424 38.5 29.75 38.5H12.25C10.8576 38.5 9.52226 37.9469 8.53769 36.9623C7.55312 35.9777 7 34.6424 7 33.25V22.75C7 21.3576 7.55312 20.0223 8.53769 19.0377C9.52226 18.0531 10.8576 17.5 12.25 17.5H29.75C31.1424 17.5 32.4778 18.0531 33.4623 19.0377C34.4469 20.0223 35 21.3576 35 22.75V33.25Z" fill="#F05454"/>
        <path d="M21 24.4998C20.5359 24.4998 20.0908 24.6841 19.7626 25.0123C19.4344 25.3405 19.25 25.7856 19.25 26.2498V29.7498C19.25 30.2139 19.4344 30.659 19.7626 30.9872C20.0908 31.3154 20.5359 31.4998 21 31.4998C21.4642 31.4998 21.9093 31.3154 22.2375 30.9872C22.5657 30.659 22.75 30.2139 22.75 29.7498V26.2498C22.75 25.7856 22.5657 25.3405 22.2375 25.0123C21.9093 24.6841 21.4642 24.4998 21 24.4998Z" fill="#F05454"/>
    </g>
    <defs>
        <clipPath id="clip0_44_144">
            <rect width="42" height="42" fill="white"/>
        </clipPath>
    </defs>
</svg>
