<svg width="98" height="98" viewBox="0 0 98 98" fill="none" xmlns="http://www.w3.org/2000/svg">
<path d="M42.1604 17.6278C43.8999 10.4574 54.1001 10.4574 55.8396 17.6278C56.1006 18.7049 56.6122 19.7053 57.3329 20.5473C58.0536 21.3894 58.9629 22.0494 59.9868 22.4736C61.0108 22.8979 62.1204 23.0743 63.2255 22.9886C64.3305 22.903 65.3997 22.5576 66.346 21.9806C72.6466 18.1422 79.8618 25.3534 76.0235 31.6581C75.4473 32.604 75.1025 33.6725 75.017 34.7768C74.9315 35.8811 75.1078 36.99 75.5316 38.0133C75.9553 39.0366 76.6145 39.9455 77.4556 40.6661C78.2968 41.3867 79.296 41.8987 80.3723 42.1604C87.5426 43.8999 87.5426 54.1001 80.3723 55.8396C79.2951 56.1006 78.2947 56.6122 77.4527 57.3329C76.6106 58.0536 75.9506 58.9629 75.5264 59.9868C75.1021 61.0108 74.9257 62.1204 75.0114 63.2255C75.097 64.3305 75.4424 65.3997 76.0194 66.346C79.8578 72.6466 72.6466 79.8618 66.3419 76.0235C65.396 75.4473 64.3275 75.1025 63.2232 75.017C62.1189 74.9315 61.01 75.1078 59.9867 75.5316C58.9634 75.9553 58.0545 76.6145 57.3339 77.4556C56.6133 78.2968 56.1013 79.296 55.8396 80.3723C54.1001 87.5426 43.8999 87.5426 42.1604 80.3723C41.8994 79.2951 41.3878 78.2947 40.6671 77.4527C39.9464 76.6106 39.0371 75.9506 38.0132 75.5264C36.9892 75.1021 35.8796 74.9257 34.7745 75.0114C33.6695 75.097 32.6003 75.4424 31.654 76.0194C25.3534 79.8578 18.1382 72.6466 21.9765 66.3419C22.5527 65.396 22.8975 64.3275 22.983 63.2232C23.0685 62.1189 22.8922 61.01 22.4684 59.9867C22.0447 58.9634 21.3855 58.0545 20.5444 57.3339C19.7032 56.6133 18.704 56.1013 17.6278 55.8396C10.4574 54.1001 10.4574 43.8999 17.6278 42.1604C18.7049 41.8994 19.7053 41.3878 20.5473 40.6671C21.3894 39.9464 22.0494 39.0371 22.4736 38.0132C22.8979 36.9892 23.0743 35.8796 22.9886 34.7745C22.903 33.6695 22.5576 32.6003 21.9806 31.654C18.1422 25.3534 25.3534 18.1382 31.6581 21.9765C35.7414 24.4592 41.0334 22.2623 42.1604 17.6278Z" stroke="#F05454" stroke-width="5" stroke-linecap="round" stroke-linejoin="round"/>
<path d="M49 61.25C55.7655 61.25 61.25 55.7655 61.25 49C61.25 42.2345 55.7655 36.75 49 36.75C42.2345 36.75 36.75 42.2345 36.75 49C36.75 55.7655 42.2345 61.25 49 61.25Z" stroke="#F05454" stroke-width="5" stroke-linecap="round" stroke-linejoin="round"/>
</svg>
