<svg width="90" height="90" viewBox="0 0 90 90" fill="none" xmlns="http://www.w3.org/2000/svg">
<path d="M33.75 15H18.75C16.6789 15 15 16.6789 15 18.75V33.75C15 35.8211 16.6789 37.5 18.75 37.5H33.75C35.8211 37.5 37.5 35.8211 37.5 33.75V18.75C37.5 16.6789 35.8211 15 33.75 15Z" stroke="#F05454" stroke-width="4" stroke-linecap="round" stroke-linejoin="round"/>
<path d="M33.75 52.5H18.75C16.6789 52.5 15 54.1789 15 56.25V71.25C15 73.3211 16.6789 75 18.75 75H33.75C35.8211 75 37.5 73.3211 37.5 71.25V56.25C37.5 54.1789 35.8211 52.5 33.75 52.5Z" stroke="#F05454" stroke-width="4" stroke-linecap="round" stroke-linejoin="round"/>
<path d="M71.25 52.5H56.25C54.1789 52.5 52.5 54.1789 52.5 56.25V71.25C52.5 73.3211 54.1789 75 56.25 75H71.25C73.3211 75 75 73.3211 75 71.25V56.25C75 54.1789 73.3211 52.5 71.25 52.5Z" stroke="#F05454" stroke-width="4" stroke-linecap="round" stroke-linejoin="round"/>
<path d="M52.5 26.25H75" stroke="#F05454" stroke-width="4" stroke-linecap="round" stroke-linejoin="round"/>
<path d="M63.75 15V37.5" stroke="#F05454" stroke-width="4" stroke-linecap="round" stroke-linejoin="round"/>
</svg>
